<svg width="19" height="19" viewBox="0 0 19 19" fill="none" xmlns="http://www.w3.org/2000/svg">
<g id="Arrow right">
<path id="Vector" d="M7.841 0.929C7.192 1.301 7.01201 2.396 6.82101 3.046C6.57001 3.899 6.351 4.779 6.021 5.606C6.047 5.541 5.825 6.158 6.021 5.606C5.266 7.728 3.24401 9.14001 0.989014 9.05701C4.39201 9.96101 8.878 8.478 9.633 4.66C9.806 3.786 9.76201 2.841 9.41101 2.015C9.18201 1.475 8.547 0.525 7.841 0.929Z" fill="black"/>
<path id="Vector_2" d="M10.344 5.45705C9.91699 6.77005 9.15101 7.82506 7.84201 8.35006C9.76201 8.33606 12.355 8.09005 13.434 6.23305C13.905 5.42205 14.196 3.68906 12.996 3.30706C11.771 2.91706 10.651 4.40606 10.363 5.41006C10.23 5.83106 10.295 5.61505 10.344 5.45705Z" fill="black"/>
<path id="Vector_3" d="M5.26901 12C6.29301 13.349 6.536 15.18 7.061 16.752C7.246 17.306 7.6 18.394 8.396 18.135C9.09 17.909 9.45099 17.042 9.60699 16.398C9.98999 14.811 9.47098 13.011 8.34698 11.836C6.49198 9.872 3.55501 9.27299 0.988007 9.95399C2.68001 9.89299 4.25001 10.65 5.26901 12Z" fill="black"/>
<path id="Vector_4" d="M9.99701 12.672C10.495 13.681 10.63 14.737 11.649 15.404C12.649 16.033 13.734 15.684 13.842 14.431C13.931 13.405 13.356 12.392 12.535 11.807C12.504 11.786 12.474 11.765 12.457 11.753C11.063 10.867 9.46599 10.675 7.84399 10.662C8.81899 11.054 9.53101 11.727 9.99701 12.672Z" fill="black"/>
<path id="Vector_5" d="M7.358 9.50305C12.16 9.68505 18.617 13.871 18.617 9.50305C18.617 5.13505 12.241 9.31305 7.358 9.50305Z" fill="black"/>
</g>
</svg>
