<svg width="18" height="18" viewBox="0 0 18 18" fill="none" xmlns="http://www.w3.org/2000/svg">
<g id="Arrow left">
<path id="Vector" d="M10.776 17.2452C11.424 16.8742 11.605 15.7782 11.796 15.1282C12.047 14.2762 12.266 13.3942 12.596 12.5682C12.792 12.0162 12.57 12.6332 12.596 12.5682C13.351 10.4462 15.373 9.03423 17.628 9.11723C14.225 8.21323 9.74 9.69622 8.984 13.5142C8.811 14.3872 8.856 15.3332 9.206 16.1592C9.434 16.7002 10.07 17.6492 10.776 17.2452Z" fill="black"/>
<path id="Vector_2" d="M8.272 12.7172C8.699 11.4042 9.46499 10.3492 10.773 9.82422C8.85299 9.83822 6.26 10.0852 5.181 11.9422C4.71 12.7532 4.41899 14.4862 5.61799 14.8682C6.84299 15.2582 7.96299 13.7692 8.25099 12.7652C8.38599 12.3442 8.322 12.5592 8.272 12.7172Z" fill="black"/>
<path id="Vector_3" d="M13.347 6.17421C12.323 4.82521 12.08 2.99421 11.555 1.42221C11.37 0.868213 11.016 -0.219783 10.22 0.039217C9.526 0.265217 9.16501 1.13222 9.00901 1.77622C8.62601 3.36322 9.145 5.16321 10.269 6.33821C12.124 8.30221 15.061 8.90122 17.628 8.22022C15.936 8.28122 14.367 7.52421 13.347 6.17421Z" fill="black"/>
<path id="Vector_4" d="M6.967 2.77124C5.967 2.14224 4.88201 2.49125 4.77401 3.74425C4.68601 4.77025 5.26 5.78324 6.081 6.36824C6.112 6.38924 6.142 6.41024 6.159 6.42224C7.553 7.30824 9.15 7.50025 10.773 7.51325C9.797 7.12125 9.085 6.44725 8.62 5.50325C8.122 4.49425 7.987 3.43724 6.967 2.77124Z" fill="black"/>
<path id="Vector_5" d="M0 8.67126C0 13.0393 6.376 8.86126 11.259 8.67126C6.457 8.48926 0 4.30326 0 8.67126Z" fill="black"/>
</g>
</svg>
