<svg width="35" height="34" viewBox="0 0 35 34" fill="none" xmlns="http://www.w3.org/2000/svg">
<g id="Group">
<path id="Vector" fill-rule="evenodd" clip-rule="evenodd" d="M15.8871 12.7064C12.5665 9.97687 9.87583 6.72628 7.85393 2.93911C7.44955 2.18479 6.50862 1.89705 5.74652 2.30143C4.9922 2.70581 4.70441 3.64679 5.10879 4.40889C7.33288 8.55378 10.2725 12.1154 13.9119 15.1094C14.5729 15.6538 15.5605 15.5604 16.1048 14.8994C16.6492 14.2306 16.5481 13.2508 15.8871 12.7064Z" fill="black"/>
<path id="Vector_2" fill-rule="evenodd" clip-rule="evenodd" d="M14.1164 2.07595C14.2875 5.21767 14.4431 8.35938 14.6375 11.5011C14.6919 12.3565 15.4307 13.0097 16.2861 12.9553C17.1415 12.9009 17.7947 12.1621 17.7403 11.3067C17.5459 8.17274 17.3903 5.03882 17.2192 1.8971C17.1726 1.04402 16.4338 0.386895 15.5784 0.43511C14.723 0.483324 14.062 1.2182 14.1164 2.07595Z" fill="black"/>
<path id="Vector_3" fill-rule="evenodd" clip-rule="evenodd" d="M25.6615 2.71365C23.6707 5.71539 21.4156 8.4838 19.1448 11.2834C18.6005 11.9521 18.7015 12.932 19.3703 13.4686C20.0391 14.013 21.019 13.9118 21.5556 13.2431C23.8885 10.3735 26.2059 7.51951 28.2589 4.43223C28.7333 3.71679 28.531 2.75253 27.8156 2.27816C27.1079 1.8038 26.1359 1.99821 25.6615 2.71365Z" fill="black"/>
<path id="Vector_4" fill-rule="evenodd" clip-rule="evenodd" d="M33.3731 13.873C27.9762 14.114 22.2449 14.1218 16.848 13.7797C15.9925 13.733 15.2538 14.3785 15.1993 15.2417C15.1449 16.0971 15.7981 16.8358 16.6535 16.8903C22.1593 17.2324 28.0073 17.2247 33.5131 16.9836C34.3685 16.9447 35.0372 16.2137 34.9984 15.3583C34.9595 14.5029 34.2285 13.8341 33.3731 13.873Z" fill="black"/>
<path id="Vector_5" fill-rule="evenodd" clip-rule="evenodd" d="M13.9078 14.8605C17.2362 18.9354 20.6812 22.9325 23.7685 27.1941C24.274 27.8862 25.2461 28.0417 25.946 27.5362C26.6381 27.0307 26.7936 26.0586 26.2881 25.3665C23.1619 21.0583 19.6781 17.0145 16.3108 12.893C15.7665 12.232 14.7866 12.1309 14.1256 12.6753C13.4568 13.2196 13.3635 14.1994 13.9078 14.8605Z" fill="black"/>
<path id="Vector_6" fill-rule="evenodd" clip-rule="evenodd" d="M14.9157 16.0429C15.7867 20.2888 16.0278 24.3482 16.09 28.6486C16.0978 29.504 16.8055 30.1884 17.6609 30.1806C18.5241 30.165 19.2084 29.4651 19.1928 28.6019C19.1306 24.0993 18.874 19.8611 17.9642 15.413C17.7853 14.5731 16.9688 14.0287 16.1211 14.2076C15.2813 14.3786 14.7369 15.203 14.9157 16.0429Z" fill="black"/>
<path id="Vector_7" fill-rule="evenodd" clip-rule="evenodd" d="M15.0561 15.7009C12.5366 20.7401 11.2379 26.3392 8.53941 31.2695C8.12725 32.016 8.40715 32.9647 9.16148 33.3769C9.9158 33.7891 10.8568 33.5091 11.269 32.7625C13.983 27.8011 15.2972 22.1709 17.8401 17.0928C18.2212 16.323 17.9101 15.3898 17.148 15.001C16.3781 14.6199 15.445 14.931 15.0561 15.7009Z" fill="black"/>
<path id="Vector_8" fill-rule="evenodd" clip-rule="evenodd" d="M16.4428 14.5573C11.427 15.4438 6.41887 15.8482 1.3719 16.447C0.516479 16.5481 -0.09009 17.318 0.0110049 18.1734C0.1121 19.0288 0.882048 19.6354 1.73747 19.5343C6.83887 18.9355 11.9092 18.5155 16.9872 17.6212C17.8271 17.4657 18.3948 16.6569 18.247 15.8171C18.0915 14.9694 17.2905 14.4018 16.4428 14.5573Z" fill="black"/>
<path id="Vector_9" fill-rule="evenodd" clip-rule="evenodd" d="M19.933 12.1936C18.8987 12.147 17.9189 12.077 16.9079 11.9292C16.0525 11.8048 15.2671 12.3958 15.1426 13.2434C15.0182 14.0911 15.6092 14.8843 16.4568 15.0087C17.5767 15.172 18.6576 15.2498 19.793 15.2965C20.6484 15.3353 21.3794 14.6743 21.4105 13.8111C21.4494 12.9557 20.7884 12.2325 19.933 12.1936Z" fill="black"/>
</g>
</svg>
