<svg width="18" height="17" viewBox="0 0 18 17" fill="none" xmlns="http://www.w3.org/2000/svg">
<g id="Group">
<path id="Vector" d="M5.36355 7.73822L1.72713 12.6905V14.9762C1.72713 15.3803 1.88038 15.7679 2.15316 16.0537C2.42595 16.3394 2.79592 16.5 3.1817 16.5H14.8183C15.204 16.5 15.574 16.3394 15.8468 16.0537C16.1196 15.7679 16.2728 15.3803 16.2728 14.9762V12.6905L12.6364 7.73822H5.36355Z" stroke="black" stroke-miterlimit="10" stroke-linecap="square"/>
<path id="Vector_2" d="M8.99999 14.2143C10.205 14.2143 11.1818 13.191 11.1818 11.9286C11.1818 10.6663 10.205 9.64294 8.99999 9.64294C7.79498 9.64294 6.81813 10.6663 6.81813 11.9286C6.81813 13.191 7.79498 14.2143 8.99999 14.2143Z" stroke="black" stroke-miterlimit="10" stroke-linecap="square"/>
<path id="Vector_3" d="M6.50176 4.78478L6.32321 3.10214C8.07853 2.6249 9.92107 2.6249 11.6764 3.10214L11.4978 4.78478C11.4771 4.98222 11.5194 5.18129 11.6181 5.35089C11.7168 5.5205 11.8663 5.6511 12.0433 5.72229L14.6881 6.78894C14.8777 6.86514 15.087 6.86837 15.2788 6.79805C15.4705 6.72774 15.6322 6.58843 15.735 6.40494L16.8816 4.36231C16.9884 4.1714 17.0246 3.94606 16.9834 3.72903C16.9422 3.51199 16.8264 3.31834 16.6579 3.18481C14.4513 1.44243 11.7631 0.5 8.9998 0.5C6.23651 0.5 3.54834 1.44243 1.34167 3.18481C1.17337 3.31838 1.05769 3.51198 1.01654 3.72893C0.975392 3.94588 1.01163 4.1711 1.11839 4.36193L2.26496 6.40494C2.36793 6.5883 2.52965 6.72744 2.72136 6.79762C2.91306 6.86779 3.12231 6.86444 3.31188 6.78817L5.95666 5.72153C6.13346 5.6503 6.28281 5.51979 6.38141 5.35035C6.48001 5.18091 6.52232 4.98205 6.50176 4.78478Z" stroke="black" stroke-miterlimit="10" stroke-linecap="square"/>
</g>
</svg>
