<svg width="18" height="17" viewBox="0 0 18 17" fill="none" xmlns="http://www.w3.org/2000/svg">
<g id="Group">
<path id="Vector" d="M4.18731 2.10864L5.39321 3.51556L6.38898 4.76089L6.28871 6.47181L4.29664 6.84034L2.89286 8.50006L3.54728 9.85845L4.1793 10.9907L5.66949 12.1443L4.69346 13.6254L3.38408 14.1976" stroke="black" stroke-miterlimit="10"/>
<path id="Vector_2" d="M15.4314 3.74173L14.2458 4.49479L12.7284 4.47932L11.5742 4.93905L10.5529 4.23453L10.2088 2.9396L9.25788 1.94014L8.25785 1.22762L8.23651 0.535889" stroke="black" stroke-miterlimit="10"/>
<path id="Vector_3" d="M16.288 5.21316C15.7352 3.98553 14.8813 2.91735 13.8057 2.10766C12.73 1.29797 11.4672 0.772987 10.1345 0.581388C8.80184 0.389788 7.44234 0.537776 6.1821 1.01163C4.92185 1.48548 3.80166 2.26986 2.92538 3.29203C2.04911 4.3142 1.44512 5.54107 1.16943 6.85888C0.893743 8.17669 0.955271 9.54278 1.34831 10.8305C1.74136 12.1182 2.45319 13.2858 3.4178 14.225C4.38242 15.1643 5.56859 15.8448 6.86633 16.2035" stroke="black" stroke-miterlimit="10" stroke-linecap="square"/>
<path id="Vector_4" d="M17 6.89044C16.505 7.55538 15.8614 8.09543 15.1205 8.46749C14.3797 8.83955 13.5622 9.03332 12.7332 9.03336C12.0259 9.03336 11.3476 9.31431 10.8475 9.8144C10.3474 10.3145 10.0664 10.9928 10.0664 11.7C10.0664 12.4072 10.3474 13.0855 10.8475 13.5856C11.3476 14.0857 12.0259 14.3666 12.7332 14.3666C13.8648 14.3666 14.9501 13.9171 15.7503 13.117C16.5505 12.3168 17 11.2316 17 10.1V6.89044Z" stroke="black" stroke-miterlimit="10" stroke-linecap="square"/>
<path id="Vector_5" d="M14.3332 10.6334C12.7332 11.1667 11.6665 12.3608 11.6665 13.8333C11.6665 14.5406 11.3855 15.2188 10.8854 15.7189C10.3853 16.219 9.707 16.5 8.99974 16.5" stroke="black" stroke-miterlimit="10" stroke-linecap="square"/>
</g>
</svg>
